<svg width="453.3" height="60.8" viewBox="0 0 453.3 60.8" xmlns="http://www.w3.org/2000/svg"><g id="svgGroup" stroke-linecap="round" fill-rule="evenodd" font-size="9pt" stroke="#5651e5" stroke-width="1" fill="#5651e5" style="stroke:#5651e5;stroke-width:1;fill:#5651e5"><path d="M 0.5 49.5 L 3.4 50 A 14.264 14.264 0 0 0 7.814 49.182 Q 14.658 46.919 25.6 38.4 L 25.6 38.3 L 20.2 38.5 A 7.617 7.617 0 0 1 19.883 38.507 Q 17.683 38.507 16.05 37.2 Q 14.3 35.8 14.3 33.8 L 14.5 33.6 A 0.144 0.144 0 0 1 14.505 33.561 Q 14.518 33.516 14.563 33.504 A 0.147 0.147 0 0 1 14.6 33.5 L 14.9 33.7 A 1.854 1.854 0 0 0 15.302 33.945 Q 16.016 34.278 17.5 34.5 Q 19.25 34.763 22.302 34.719 A 70.889 70.889 0 0 0 23.2 34.7 L 26.7 34.6 L 30 34.6 Q 33.023 32.181 36.905 28.499 A 213.507 213.507 0 0 0 40.9 24.6 Q 43.9 21.5 46.25 18.9 A 65.869 65.869 0 0 0 47.742 17.195 Q 48.394 16.421 48.934 15.722 A 28.607 28.607 0 0 0 49.9 14.4 L 53 9.9 Q 53.369 9.9 53.398 10.835 A 5.368 5.368 0 0 1 53.4 11 A 8.893 8.893 0 0 1 52.741 14.176 Q 51.648 17.016 48.743 20.546 A 53.226 53.226 0 0 1 46.3 23.3 L 35.9 34.3 L 47.8 33.1 Q 48.516 31.669 48.951 30.718 A 36.36 36.36 0 0 0 49.05 30.5 Q 49.5 29.5 50.1 28.3 A 213.802 213.802 0 0 1 50.431 27.641 Q 50.805 26.9 51.312 25.906 A 799.511 799.511 0 0 1 51.8 24.95 Q 52.642 23.304 53.953 20.749 A 8246.088 8246.088 0 0 1 54.8 19.1 L 59.5 10.1 L 61.4 6.4 A 26.44 26.44 0 0 1 63.23 3.407 A 23.869 23.869 0 0 1 63.6 2.9 Q 64.507 1.69 65.3 1.395 A 1.428 1.428 0 0 1 65.8 1.3 A 4.724 4.724 0 0 1 66.688 1.392 Q 67.481 1.544 68.45 1.95 A 6.708 6.708 0 0 1 69.016 2.216 Q 69.938 2.709 69.996 3.23 A 0.632 0.632 0 0 1 70 3.3 A 68.361 68.361 0 0 0 68.815 5.097 Q 68.22 6.027 67.581 7.083 A 121.142 121.142 0 0 0 67.15 7.8 Q 65.6 10.4 63.8 13.4 Q 47.763 40.129 46.256 52.491 A 19.969 19.969 0 0 0 46.1 54.9 Q 46.1 55.4 46.3 56.45 Q 46.5 57.5 46.9 58.4 Q 47.36 59.597 47.524 60.158 A 5.46 5.46 0 0 1 47.55 60.25 A 2.813 2.813 0 0 1 47.578 60.361 Q 47.647 60.661 47.585 60.756 A 0.095 0.095 0 0 1 47.5 60.8 A 3.039 3.039 0 0 1 45.349 59.897 Q 44.915 59.485 44.535 58.885 A 7.89 7.89 0 0 1 44.2 58.3 A 10.11 10.11 0 0 1 43.423 56.103 Q 43 54.316 43 52 A 13.202 13.202 0 0 1 43.193 50.007 Q 43.722 46.678 45.702 40.091 A 264.227 264.227 0 0 1 47.1 35.6 A 6.755 6.755 0 0 0 46.706 35.614 Q 45.955 35.659 44.5 35.85 Q 42.6 36.1 39.4 36.6 Q 36.627 37.047 34.774 37.375 A 154.807 154.807 0 0 0 34.35 37.45 Q 32.4 37.8 31.6 38 A 119.524 119.524 0 0 1 24.344 43.876 Q 17.22 49.16 11.749 51.09 A 17.429 17.429 0 0 1 6 52.2 A 9.331 9.331 0 0 1 3.48 51.879 A 6.675 6.675 0 0 1 0 49.6 A 1.189 1.189 0 0 1 0.067 49.538 Q 0.218 49.409 0.3 49.45 A 0.482 0.482 0 0 0 0.413 49.491 A 0.408 0.408 0 0 0 0.5 49.5 Z M 67.9 34.8 L 70.2 30.9 Q 72.038 27.761 73.875 25.648 A 20.512 20.512 0 0 1 75 24.45 A 9.055 9.055 0 0 1 76.951 22.973 A 6.829 6.829 0 0 1 80.3 22.1 L 80.5 22.1 Q 84.464 22.1 85.012 26.705 A 13.538 13.538 0 0 1 85.1 28.3 Q 85.1 30.686 84.28 34.438 A 59.592 59.592 0 0 1 84.2 34.8 A 64.973 64.973 0 0 1 83.384 38.011 Q 82.588 40.863 81.4 44.3 L 95.1 29.5 Q 96.5 28.7 98.7 28.7 A 8.98 8.98 0 0 1 99.423 28.727 Q 100.587 28.821 100.892 29.252 A 0.588 0.588 0 0 1 101 29.6 Q 98.031 37.616 97.266 42.437 A 19.156 19.156 0 0 0 97 45.4 Q 97 50.1 98.7 50.1 L 99.4 47.9 A 2.902 2.902 0 0 1 99.558 48.406 Q 99.679 48.942 99.697 49.716 A 12.073 12.073 0 0 1 99.7 50 Q 99.7 51.738 98.985 52.314 A 1.365 1.365 0 0 1 98.1 52.6 A 4.289 4.289 0 0 1 94.005 49.985 Q 92.9 47.749 92.9 43.6 Q 92.9 41.71 93.158 39.376 A 55.62 55.62 0 0 1 93.25 38.6 Q 93.6 35.8 94.3 32.4 Q 93 33.7 91.95 35.05 Q 90.9 36.4 89.7 38.1 L 84.5 45.4 A 106.198 106.198 0 0 1 83.119 47.317 Q 80.579 50.755 79.567 51.367 A 0.755 0.755 0 0 1 79.2 51.5 A 14.712 14.712 0 0 1 78.132 51.465 Q 76.49 51.344 76.004 50.816 A 0.739 0.739 0 0 1 75.8 50.3 A 0.911 0.911 0 0 1 75.817 50.205 Q 75.92 49.71 76.637 46.701 A 1583.209 1583.209 0 0 1 76.9 45.6 A 255.967 255.967 0 0 0 78.264 40.241 Q 80.4 31.416 80.4 27.9 A 5.075 5.075 0 0 0 80.354 27.186 Q 80.156 25.8 79.1 25.8 Q 75.4 25.8 69.1 36.7 A 88.06 88.06 0 0 0 68.24 38.306 Q 67.867 39.019 67.469 39.805 A 156.498 156.498 0 0 0 66.65 41.45 A 148.029 148.029 0 0 0 65.06 44.79 A 124.513 124.513 0 0 0 64.2 46.7 Q 64.016 47.253 63.45 48.484 A 62.267 62.267 0 0 1 63.35 48.7 Q 62.7 50.1 62.1 51.35 A 35.325 35.325 0 0 1 61.958 51.643 Q 61.502 52.57 61.406 52.599 A 0.02 0.02 0 0 1 61.4 52.6 A 4.504 4.504 0 0 1 60.21 52.433 A 6.07 6.07 0 0 1 59.3 52.1 Q 58.417 51.699 58.243 51.168 A 0.855 0.855 0 0 1 58.2 50.9 A 5.593 5.593 0 0 1 58.316 49.96 Q 58.729 47.752 60.608 41.721 A 371.864 371.864 0 0 1 61.5 38.9 Q 64.8 28.5 64.8 23.3 A 2.699 2.699 0 0 0 64.723 22.627 Q 64.472 21.653 63.4 21.5 A 7.796 7.796 0 0 1 62.96 21.426 Q 62 21.231 62 20.9 A 0.746 0.746 0 0 1 62.445 20.187 Q 62.817 20 63.5 20 A 11.92 11.92 0 0 1 65.987 20.236 Q 69.641 21.019 70.126 24.403 A 7.735 7.735 0 0 1 70.2 25.5 Q 70.2 28.108 68.055 34.353 A 106.386 106.386 0 0 1 67.9 34.8 Z M 223 55 L 220.5 55 Q 214.467 55 210.725 52.67 A 11.472 11.472 0 0 1 207.1 49.1 L 207.3 48.5 Q 211.8 50.5 216.5 50.5 Q 221.5 50.5 226.2 48.6 A 17.417 17.417 0 0 0 228.049 47.767 Q 231.1 46.152 231.1 44.1 A 2.113 2.113 0 0 0 230.894 43.296 Q 230.171 41.622 226.909 38.117 A 76.246 76.246 0 0 0 226.8 38 Q 223.4 34.3 220.45 31.1 Q 217.5 27.9 216.4 26.2 A 13.194 13.194 0 0 1 214.476 20.403 A 16.502 16.502 0 0 1 214.4 18.8 Q 214.4 13.1 219.75 9 A 28.558 28.558 0 0 1 224.388 6.15 Q 228.775 3.963 234.9 2.4 Q 238.925 1.416 241.55 0.872 A 88.724 88.724 0 0 1 242.15 0.75 Q 244.35 0.31 245.238 0.222 A 3.822 3.822 0 0 1 245.6 0.2 A 10.953 10.953 0 0 1 246.671 0.25 Q 247.406 0.322 248 0.5 L 250.5 3.1 A 16.897 16.897 0 0 1 251.201 3.927 Q 252.183 5.17 252.287 5.927 A 1.267 1.267 0 0 1 252.3 6.1 A 2.293 2.293 0 0 1 251.873 7.345 Q 250.95 8.757 248.035 10.465 A 35.194 35.194 0 0 1 246.9 11.1 A 89.281 89.281 0 0 1 245.087 12.052 Q 241.456 13.9 240.4 13.9 L 240.3 13.4 L 245.4 9.9 Q 247.4 8.5 248.2 7.6 Q 248.91 6.801 248.99 6.159 A 1.293 1.293 0 0 0 249 6 A 0.62 0.62 0 0 0 248.663 5.461 Q 248.082 5.1 246.5 5.1 A 38.791 38.791 0 0 0 237.841 6.117 A 47.622 47.622 0 0 0 233.6 7.3 A 41.283 41.283 0 0 0 226.439 10.201 A 33.554 33.554 0 0 0 221.7 13.2 Q 218.938 15.286 217.733 17.435 A 6.815 6.815 0 0 0 216.8 20.8 A 5.35 5.35 0 0 0 217.278 22.795 Q 218.839 26.556 225.5 33.6 Q 233.475 41.942 234.14 46.502 A 5.536 5.536 0 0 1 234.2 47.3 A 5.947 5.947 0 0 1 232.305 51.67 A 9.485 9.485 0 0 1 230.9 52.8 A 12.978 12.978 0 0 1 225.617 54.806 A 17.074 17.074 0 0 1 223 55 Z M 110.1 29 L 117.4 12.2 A 79.348 79.348 0 0 0 118.352 9.497 Q 119.602 5.71 119.693 3.789 A 6.136 6.136 0 0 0 119.7 3.5 A 3.568 3.568 0 0 0 119.621 2.711 Q 119.322 1.4 117.9 1.4 L 114.4 2.1 Q 113.7 2.1 113.7 1.5 A 1.093 1.093 0 0 1 114.311 0.529 Q 115.154 0.029 117.162 0.002 A 17.372 17.372 0 0 1 117.4 0 Q 119.796 0 121.477 0.517 A 6.83 6.83 0 0 1 123.2 1.3 Q 125.197 2.537 125.295 4.768 A 5.308 5.308 0 0 1 125.3 5 Q 125.3 6.868 122.727 12.3 A 114.616 114.616 0 0 1 121.4 15 L 116.2 25.2 A 11.929 11.929 0 0 1 122.151 23.059 A 15.074 15.074 0 0 1 123.5 23 A 10.271 10.271 0 0 1 126.189 23.321 Q 130.4 24.466 130.4 29.7 Q 130.4 37.4 123 46.6 Q 116.869 54.223 111.355 55.53 A 9.753 9.753 0 0 1 109.1 55.8 Q 104.2 55.8 101.1 50.9 Q 100.8 50.4 101.1 50.1 A 14.95 14.95 0 0 0 103.265 51.41 Q 104.535 52.029 105.754 52.261 A 7.718 7.718 0 0 0 107.2 52.4 A 11.787 11.787 0 0 0 113.773 50.311 Q 115.597 49.109 117.345 47.216 A 30.34 30.34 0 0 0 119.7 44.3 A 37.078 37.078 0 0 0 123.297 38.259 Q 125.7 33.099 125.7 28.1 A 6.772 6.772 0 0 0 125.62 27.007 Q 125.303 25.08 123.732 25.003 A 2.713 2.713 0 0 0 123.6 25 Q 119.2 25 113.4 33.8 A 63.646 63.646 0 0 0 110.819 37.963 Q 107.5 43.85 107.5 47.6 Q 107.5 48.401 108.054 49.677 A 13.225 13.225 0 0 0 108.2 50 Q 108.2 50.5 107.45 50.3 Q 106.7 50.1 106 49.05 Q 105.446 48.219 105.33 46.917 A 8.127 8.127 0 0 1 105.3 46.2 A 16.064 16.064 0 0 1 105.412 44.399 Q 105.659 42.225 106.45 39.2 A 54.16 54.16 0 0 1 107.607 35.394 Q 108.237 33.55 109.054 31.514 A 105.526 105.526 0 0 1 110.1 29 Z M 322.7 22.1 L 323.7 22.1 Q 327.4 22.1 330 23.55 A 6.595 6.595 0 0 1 331.257 24.441 A 3.881 3.881 0 0 1 332.6 27.4 Q 332.6 28.386 331.877 28.488 A 1.265 1.265 0 0 1 331.7 28.5 A 0.432 0.432 0 0 1 331.581 28.485 Q 331.448 28.447 331.413 28.311 A 0.442 0.442 0 0 1 331.4 28.2 A 8.255 8.255 0 0 0 330.43 26.496 Q 328.923 24.5 326.5 24.5 Q 321.847 24.5 316.128 30.764 A 51.527 51.527 0 0 0 313.5 33.9 A 69.565 69.565 0 0 0 310.479 37.982 Q 306.2 44.272 306.2 48.1 A 5.406 5.406 0 0 0 306.234 48.74 Q 306.312 49.386 306.564 49.701 A 0.774 0.774 0 0 0 307.2 50 Q 311.436 50 324.442 32.015 A 311.568 311.568 0 0 0 326.1 29.7 Q 326 29.8 326.25 29.65 A 1.34 1.34 0 0 1 326.412 29.566 Q 326.498 29.53 326.577 29.513 A 0.606 0.606 0 0 1 326.7 29.5 A 0.993 0.993 0 0 1 326.971 29.548 Q 327.414 29.679 328.249 30.166 A 21.5 21.5 0 0 1 328.8 30.5 A 8.534 8.534 0 0 1 329.384 30.858 Q 330.4 31.542 330.4 32.1 L 330 32.75 A 9.8 9.8 0 0 0 329.745 33.193 Q 329.422 33.786 329 34.7 A 40.777 40.777 0 0 0 327.189 39.201 A 34.522 34.522 0 0 0 326.55 41.35 A 31.121 31.121 0 0 0 326.032 43.668 Q 325.825 44.813 325.747 45.828 A 15.347 15.347 0 0 0 325.7 47 A 16.219 16.219 0 0 0 325.788 48.768 Q 325.982 50.525 326.604 51.408 A 1.972 1.972 0 0 0 328.3 52.3 L 329.3 52.1 L 329.5 52.2 A 0.62 0.62 0 0 1 329.163 52.74 Q 328.582 53.1 327 53.1 Q 324.6 53.1 323 50.9 Q 321.75 48.983 321.542 46.025 A 17.446 17.446 0 0 1 321.5 44.8 A 24.872 24.872 0 0 1 321.815 40.964 Q 322.14 38.885 322.8 36.6 Q 322.7 36.9 322.1 37.7 Q 321.547 38.437 320.401 40.191 A 158.228 158.228 0 0 0 320.2 40.5 A 90.7 90.7 0 0 1 317.248 44.816 Q 311.119 53.2 307.3 53.2 A 4.314 4.314 0 0 1 304.77 52.365 A 6.622 6.622 0 0 1 303.65 51.35 A 6.407 6.407 0 0 1 302.116 48.067 A 8.887 8.887 0 0 1 302 46.6 Q 302 43.7 305.5 37.6 Q 309 31.6 314.1 26.8 Q 319.1 22.1 322.7 22.1 Z M 390.5 22.1 L 391.5 22.1 Q 395.2 22.1 397.8 23.55 A 6.595 6.595 0 0 1 399.057 24.441 A 3.881 3.881 0 0 1 400.4 27.4 Q 400.4 28.386 399.677 28.488 A 1.265 1.265 0 0 1 399.5 28.5 A 0.432 0.432 0 0 1 399.381 28.485 Q 399.248 28.447 399.213 28.311 A 0.442 0.442 0 0 1 399.2 28.2 A 8.255 8.255 0 0 0 398.23 26.496 Q 396.723 24.5 394.3 24.5 Q 389.647 24.5 383.928 30.764 A 51.527 51.527 0 0 0 381.3 33.9 A 69.565 69.565 0 0 0 378.279 37.982 Q 374 44.272 374 48.1 A 5.406 5.406 0 0 0 374.034 48.74 Q 374.112 49.386 374.364 49.701 A 0.774 0.774 0 0 0 375 50 Q 379.236 50 392.242 32.015 A 311.568 311.568 0 0 0 393.9 29.7 Q 393.8 29.8 394.05 29.65 A 1.34 1.34 0 0 1 394.212 29.566 Q 394.298 29.53 394.377 29.513 A 0.606 0.606 0 0 1 394.5 29.5 A 0.993 0.993 0 0 1 394.771 29.548 Q 395.214 29.679 396.049 30.166 A 21.5 21.5 0 0 1 396.6 30.5 A 8.534 8.534 0 0 1 397.184 30.858 Q 398.2 31.542 398.2 32.1 L 397.8 32.75 A 9.8 9.8 0 0 0 397.545 33.193 Q 397.222 33.786 396.8 34.7 A 40.777 40.777 0 0 0 394.989 39.201 A 34.522 34.522 0 0 0 394.35 41.35 A 31.121 31.121 0 0 0 393.832 43.668 Q 393.625 44.813 393.547 45.828 A 15.347 15.347 0 0 0 393.5 47 A 16.219 16.219 0 0 0 393.588 48.768 Q 393.782 50.525 394.404 51.408 A 1.972 1.972 0 0 0 396.1 52.3 L 397.1 52.1 L 397.3 52.2 A 0.62 0.62 0 0 1 396.963 52.74 Q 396.382 53.1 394.8 53.1 Q 392.4 53.1 390.8 50.9 Q 389.55 48.983 389.342 46.025 A 17.446 17.446 0 0 1 389.3 44.8 A 24.872 24.872 0 0 1 389.615 40.964 Q 389.94 38.885 390.6 36.6 Q 390.5 36.9 389.9 37.7 Q 389.347 38.437 388.201 40.191 A 158.228 158.228 0 0 0 388 40.5 A 90.7 90.7 0 0 1 385.048 44.816 Q 378.919 53.2 375.1 53.2 A 4.314 4.314 0 0 1 372.57 52.365 A 6.622 6.622 0 0 1 371.45 51.35 A 6.407 6.407 0 0 1 369.916 48.067 A 8.887 8.887 0 0 1 369.8 46.6 Q 369.8 43.7 373.3 37.6 Q 376.8 31.6 381.9 26.8 Q 386.9 22.1 390.5 22.1 Z M 443.4 22.1 L 444.4 22.1 Q 448.1 22.1 450.7 23.55 A 6.595 6.595 0 0 1 451.957 24.441 A 3.881 3.881 0 0 1 453.3 27.4 Q 453.3 28.386 452.577 28.488 A 1.265 1.265 0 0 1 452.4 28.5 A 0.432 0.432 0 0 1 452.281 28.485 Q 452.148 28.447 452.113 28.311 A 0.442 0.442 0 0 1 452.1 28.2 A 8.255 8.255 0 0 0 451.13 26.496 Q 449.623 24.5 447.2 24.5 Q 442.547 24.5 436.828 30.764 A 51.527 51.527 0 0 0 434.2 33.9 A 69.565 69.565 0 0 0 431.179 37.982 Q 426.9 44.272 426.9 48.1 A 5.406 5.406 0 0 0 426.934 48.74 Q 427.012 49.386 427.264 49.701 A 0.774 0.774 0 0 0 427.9 50 Q 432.136 50 445.142 32.015 A 311.568 311.568 0 0 0 446.8 29.7 Q 446.7 29.8 446.95 29.65 A 1.34 1.34 0 0 1 447.112 29.566 Q 447.198 29.53 447.277 29.513 A 0.606 0.606 0 0 1 447.4 29.5 A 0.993 0.993 0 0 1 447.671 29.548 Q 448.114 29.679 448.949 30.166 A 21.5 21.5 0 0 1 449.5 30.5 A 8.534 8.534 0 0 1 450.084 30.858 Q 451.1 31.542 451.1 32.1 L 450.7 32.75 A 9.8 9.8 0 0 0 450.445 33.193 Q 450.122 33.786 449.7 34.7 A 40.777 40.777 0 0 0 447.889 39.201 A 34.522 34.522 0 0 0 447.25 41.35 A 31.121 31.121 0 0 0 446.732 43.668 Q 446.525 44.813 446.447 45.828 A 15.347 15.347 0 0 0 446.4 47 A 16.219 16.219 0 0 0 446.488 48.768 Q 446.682 50.525 447.304 51.408 A 1.972 1.972 0 0 0 449 52.3 L 450 52.1 L 450.2 52.2 A 0.62 0.62 0 0 1 449.863 52.74 Q 449.282 53.1 447.7 53.1 Q 445.3 53.1 443.7 50.9 Q 442.45 48.983 442.242 46.025 A 17.446 17.446 0 0 1 442.2 44.8 A 24.872 24.872 0 0 1 442.515 40.964 Q 442.84 38.885 443.5 36.6 Q 443.4 36.9 442.8 37.7 Q 442.247 38.437 441.101 40.191 A 158.228 158.228 0 0 0 440.9 40.5 A 90.7 90.7 0 0 1 437.948 44.816 Q 431.819 53.2 428 53.2 A 4.314 4.314 0 0 1 425.47 52.365 A 6.622 6.622 0 0 1 424.35 51.35 A 6.407 6.407 0 0 1 422.816 48.067 A 8.887 8.887 0 0 1 422.7 46.6 Q 422.7 43.7 426.2 37.6 Q 429.7 31.6 434.8 26.8 Q 439.8 22.1 443.4 22.1 Z M 152.1 22.1 L 153.1 22.1 Q 156.8 22.1 159.4 23.55 A 6.595 6.595 0 0 1 160.657 24.441 A 3.881 3.881 0 0 1 162 27.4 Q 162 28.386 161.277 28.488 A 1.265 1.265 0 0 1 161.1 28.5 A 0.432 0.432 0 0 1 160.981 28.485 Q 160.848 28.447 160.813 28.311 A 0.442 0.442 0 0 1 160.8 28.2 A 8.255 8.255 0 0 0 159.83 26.496 Q 158.323 24.5 155.9 24.5 Q 151.247 24.5 145.528 30.764 A 51.527 51.527 0 0 0 142.9 33.9 A 69.565 69.565 0 0 0 139.879 37.982 Q 135.6 44.272 135.6 48.1 A 5.406 5.406 0 0 0 135.634 48.74 Q 135.712 49.386 135.964 49.701 A 0.774 0.774 0 0 0 136.6 50 Q 140.836 50 153.842 32.015 A 311.568 311.568 0 0 0 155.5 29.7 Q 155.4 29.8 155.65 29.65 A 1.34 1.34 0 0 1 155.812 29.566 Q 155.898 29.53 155.977 29.513 A 0.606 0.606 0 0 1 156.1 29.5 A 0.993 0.993 0 0 1 156.371 29.548 Q 156.814 29.679 157.649 30.166 A 21.5 21.5 0 0 1 158.2 30.5 A 8.534 8.534 0 0 1 158.784 30.858 Q 159.8 31.542 159.8 32.1 L 159.4 32.75 A 9.8 9.8 0 0 0 159.145 33.193 Q 158.822 33.786 158.4 34.7 A 40.777 40.777 0 0 0 156.589 39.201 A 34.522 34.522 0 0 0 155.95 41.35 A 31.121 31.121 0 0 0 155.432 43.668 Q 155.225 44.813 155.147 45.828 A 15.347 15.347 0 0 0 155.1 47 A 16.219 16.219 0 0 0 155.188 48.768 Q 155.382 50.525 156.004 51.408 A 1.972 1.972 0 0 0 157.7 52.3 L 158.7 52.1 L 158.9 52.2 A 0.62 0.62 0 0 1 158.563 52.74 Q 157.982 53.1 156.4 53.1 Q 154 53.1 152.4 50.9 Q 151.15 48.983 150.942 46.025 A 17.446 17.446 0 0 1 150.9 44.8 A 24.872 24.872 0 0 1 151.215 40.964 Q 151.54 38.885 152.2 36.6 Q 152.1 36.9 151.5 37.7 Q 150.947 38.437 149.801 40.191 A 158.228 158.228 0 0 0 149.6 40.5 A 90.7 90.7 0 0 1 146.648 44.816 Q 140.519 53.2 136.7 53.2 A 4.314 4.314 0 0 1 134.17 52.365 A 6.622 6.622 0 0 1 133.05 51.35 A 6.407 6.407 0 0 1 131.516 48.067 A 8.887 8.887 0 0 1 131.4 46.6 Q 131.4 43.7 134.9 37.6 Q 138.4 31.6 143.5 26.8 Q 148.5 22.1 152.1 22.1 Z M 165.128 52.494 A 3.857 3.857 0 0 0 166 52.6 A 1.08 1.08 0 0 0 166.781 52.281 Q 166.953 52.114 167.089 51.86 A 3.048 3.048 0 0 0 167.3 51.35 Q 167.7 50.1 168.3 47.7 A 23.815 23.815 0 0 1 168.639 46.392 Q 168.895 45.504 169.248 44.492 A 54.745 54.745 0 0 1 170.05 42.35 A 19.496 19.496 0 0 1 171.004 40.322 Q 171.648 39.122 172.53 37.807 A 46.547 46.547 0 0 1 174.5 35.1 A 72.603 72.603 0 0 1 175.369 34.097 A 82.785 82.785 0 0 1 178.2 31.05 A 36.628 36.628 0 0 1 179.24 30.027 A 41.975 41.975 0 0 1 182.7 27.1 Q 182.204 28.39 182.2 29.975 A 10.257 10.257 0 0 0 182.2 30 A 6.829 6.829 0 0 0 182.224 30.567 A 7.729 7.729 0 0 0 182.5 32.05 A 4.62 4.62 0 0 0 182.803 32.832 A 5.297 5.297 0 0 0 183.6 34 A 5.811 5.811 0 0 0 183.822 34.225 A 4.308 4.308 0 0 0 186.9 35.5 A 9.172 9.172 0 0 0 187.121 35.498 Q 188.148 35.473 188.582 35.211 A 0.578 0.578 0 0 0 188.9 34.7 A 0.28 0.28 0 0 0 188.898 34.666 Q 188.877 34.5 188.65 34.5 A 1.169 1.169 0 0 1 188.536 34.495 A 0.952 0.952 0 0 1 188.2 34.4 Q 186.3 33.8 186.3 31.1 Q 186.4 29.9 187.6 27.75 A 47.282 47.282 0 0 1 188.556 26.117 A 57.431 57.431 0 0 1 190.4 23.3 A 50.107 50.107 0 0 0 190.511 23.162 Q 190.842 22.744 191.1 22.4 A 3.45 3.45 0 0 1 191.113 22.384 Q 191.402 22.002 191.5 22.1 A 0.325 0.325 0 0 0 191.451 22.038 Q 191.101 21.686 189.277 21.617 A 25.961 25.961 0 0 0 188.3 21.6 A 4.285 4.285 0 0 0 186.089 22.187 Q 185.261 22.673 184.579 23.562 A 8.978 8.978 0 0 0 183.6 25.2 Q 177 28.5 171.6 37.3 Q 174.281 29.013 174.784 26.403 A 5.257 5.257 0 0 0 174.9 25.5 A 7.735 7.735 0 0 0 174.826 24.403 Q 174.341 21.019 170.687 20.236 A 11.92 11.92 0 0 0 168.2 20 Q 167.517 20 167.145 20.187 A 0.746 0.746 0 0 0 166.7 20.9 Q 166.7 21.231 167.66 21.426 A 7.796 7.796 0 0 0 168.1 21.5 Q 169.172 21.653 169.423 22.627 A 2.699 2.699 0 0 1 169.5 23.3 Q 169.5 28.5 166.2 38.9 A 371.864 371.864 0 0 0 165.308 41.721 Q 163.429 47.752 163.016 49.96 A 5.593 5.593 0 0 0 162.9 50.9 A 0.855 0.855 0 0 0 162.943 51.168 Q 163.117 51.699 164 52.1 Q 164.593 52.37 165.128 52.494 Z M 241.428 52.494 A 3.857 3.857 0 0 0 242.3 52.6 A 1.08 1.08 0 0 0 243.081 52.281 Q 243.253 52.114 243.389 51.86 A 3.048 3.048 0 0 0 243.6 51.35 Q 244 50.1 244.6 47.7 A 23.815 23.815 0 0 1 244.939 46.392 Q 245.195 45.504 245.548 44.492 A 54.745 54.745 0 0 1 246.35 42.35 A 19.496 19.496 0 0 1 247.304 40.322 Q 247.948 39.122 248.83 37.807 A 46.547 46.547 0 0 1 250.8 35.1 A 72.603 72.603 0 0 1 251.669 34.097 A 82.785 82.785 0 0 1 254.5 31.05 A 36.628 36.628 0 0 1 255.54 30.027 A 41.975 41.975 0 0 1 259 27.1 Q 258.504 28.39 258.5 29.975 A 10.257 10.257 0 0 0 258.5 30 A 6.829 6.829 0 0 0 258.524 30.567 A 7.729 7.729 0 0 0 258.8 32.05 A 4.62 4.62 0 0 0 259.103 32.832 A 5.297 5.297 0 0 0 259.9 34 A 5.811 5.811 0 0 0 260.122 34.225 A 4.308 4.308 0 0 0 263.2 35.5 A 9.172 9.172 0 0 0 263.421 35.498 Q 264.448 35.473 264.882 35.211 A 0.578 0.578 0 0 0 265.2 34.7 A 0.28 0.28 0 0 0 265.198 34.666 Q 265.177 34.5 264.95 34.5 A 1.169 1.169 0 0 1 264.836 34.495 A 0.952 0.952 0 0 1 264.5 34.4 Q 262.6 33.8 262.6 31.1 Q 262.7 29.9 263.9 27.75 A 47.282 47.282 0 0 1 264.856 26.117 A 57.431 57.431 0 0 1 266.7 23.3 A 50.107 50.107 0 0 0 266.811 23.162 Q 267.142 22.744 267.4 22.4 A 3.45 3.45 0 0 1 267.413 22.384 Q 267.702 22.002 267.8 22.1 A 0.325 0.325 0 0 0 267.751 22.038 Q 267.401 21.686 265.577 21.617 A 25.961 25.961 0 0 0 264.6 21.6 A 4.285 4.285 0 0 0 262.389 22.187 Q 261.561 22.673 260.879 23.562 A 8.978 8.978 0 0 0 259.9 25.2 Q 253.3 28.5 247.9 37.3 Q 250.581 29.013 251.084 26.403 A 5.257 5.257 0 0 0 251.2 25.5 A 7.735 7.735 0 0 0 251.126 24.403 Q 250.641 21.019 246.987 20.236 A 11.92 11.92 0 0 0 244.5 20 Q 243.817 20 243.445 20.187 A 0.746 0.746 0 0 0 243 20.9 Q 243 21.231 243.96 21.426 A 7.796 7.796 0 0 0 244.4 21.5 Q 245.472 21.653 245.723 22.627 A 2.699 2.699 0 0 1 245.8 23.3 Q 245.8 28.5 242.5 38.9 A 371.864 371.864 0 0 0 241.608 41.721 Q 239.729 47.752 239.316 49.96 A 5.593 5.593 0 0 0 239.2 50.9 A 0.855 0.855 0 0 0 239.243 51.168 Q 239.417 51.699 240.3 52.1 Q 240.893 52.37 241.428 52.494 Z M 286.2 53.6 Q 283.2 53.6 283.2 52.2 Q 284.536 37.861 284.682 33.992 A 21.642 21.642 0 0 0 284.7 33.2 A 42.204 42.204 0 0 0 284.626 30.589 Q 284.387 26.756 283.375 25.461 A 1.541 1.541 0 0 0 282.2 24.8 Q 282 24.9 281.55 25.7 Q 281.178 26.362 280.908 26.476 A 0.277 0.277 0 0 1 280.8 26.5 A 0.753 0.753 0 0 1 280.082 26.075 Q 279.915 25.757 279.901 25.2 A 4.124 4.124 0 0 1 279.9 25.1 A 1.66 1.66 0 0 1 280.885 23.512 Q 281.703 23.1 283.2 23.1 A 5.191 5.191 0 0 1 288.161 26.326 Q 289.317 28.707 289.475 32.845 A 35.544 35.544 0 0 1 289.5 34.2 A 6.312 6.312 0 0 1 289.493 34.472 Q 289.473 34.915 289.4 35.751 A 90.883 90.883 0 0 1 289.35 36.3 Q 289.235 37.525 288.974 39.454 A 175.868 175.868 0 0 1 288.8 40.7 A 0.576 0.576 0 0 0 288.82 40.858 Q 288.871 41.036 289.052 41.083 A 0.589 0.589 0 0 0 289.2 41.1 A 0.27 0.27 0 0 0 289.347 41.053 Q 289.473 40.972 289.6 40.75 A 6.963 6.963 0 0 1 289.683 40.609 Q 289.822 40.378 289.9 40.3 A 183.307 183.307 0 0 1 294.93 33.503 Q 299.052 28.211 302.7 24.5 A 57.485 57.485 0 0 1 304.965 22.31 Q 308.424 19.16 310.494 18.614 A 3.176 3.176 0 0 1 311.3 18.5 Q 312.5 18.5 312.5 19.6 A 1.353 1.353 0 0 1 312.458 19.947 A 0.985 0.985 0 0 1 312.2 20.4 A 38.452 38.452 0 0 0 307.863 23.399 Q 305.73 25.082 303.447 27.263 A 93.686 93.686 0 0 0 299.3 31.5 Q 292.4 38.9 288.7 48.8 Q 287.5 53.6 286.2 53.6 Z M 406.9 53.6 Q 403.9 53.6 403.9 52.2 Q 405.236 37.861 405.382 33.992 A 21.642 21.642 0 0 0 405.4 33.2 A 42.204 42.204 0 0 0 405.326 30.589 Q 405.087 26.756 404.075 25.461 A 1.541 1.541 0 0 0 402.9 24.8 Q 402.7 24.9 402.25 25.7 Q 401.878 26.362 401.608 26.476 A 0.277 0.277 0 0 1 401.5 26.5 A 0.753 0.753 0 0 1 400.782 26.075 Q 400.615 25.757 400.601 25.2 A 4.124 4.124 0 0 1 400.6 25.1 A 1.66 1.66 0 0 1 401.585 23.512 Q 402.403 23.1 403.9 23.1 A 5.191 5.191 0 0 1 408.861 26.326 Q 410.017 28.707 410.175 32.845 A 35.544 35.544 0 0 1 410.2 34.2 A 6.312 6.312 0 0 1 410.193 34.472 Q 410.173 34.915 410.1 35.751 A 90.883 90.883 0 0 1 410.05 36.3 Q 409.935 37.525 409.674 39.454 A 175.868 175.868 0 0 1 409.5 40.7 A 0.576 0.576 0 0 0 409.52 40.858 Q 409.571 41.036 409.752 41.083 A 0.589 0.589 0 0 0 409.9 41.1 A 0.27 0.27 0 0 0 410.047 41.053 Q 410.173 40.972 410.3 40.75 A 6.963 6.963 0 0 1 410.383 40.609 Q 410.522 40.378 410.6 40.3 A 183.307 183.307 0 0 1 415.63 33.503 Q 419.752 28.211 423.4 24.5 A 57.485 57.485 0 0 1 425.665 22.31 Q 429.124 19.16 431.194 18.614 A 3.176 3.176 0 0 1 432 18.5 Q 433.2 18.5 433.2 19.6 A 1.353 1.353 0 0 1 433.158 19.947 A 0.985 0.985 0 0 1 432.9 20.4 A 38.452 38.452 0 0 0 428.563 23.399 Q 426.43 25.082 424.147 27.263 A 93.686 93.686 0 0 0 420 31.5 Q 413.1 38.9 409.4 48.8 Q 408.2 53.6 406.9 53.6 Z M 364 11.9 L 362 12.4 A 0.432 0.432 0 0 1 361.881 12.385 Q 361.748 12.347 361.713 12.211 A 0.442 0.442 0 0 1 361.7 12.1 A 1.015 1.015 0 0 1 362.039 11.349 Q 362.338 11.061 362.9 10.85 Q 364.1 10.4 364.7 10.4 Q 368.961 10.4 369.096 15.09 A 10.838 10.838 0 0 1 369.1 15.4 A 12.472 12.472 0 0 1 368.924 17.388 Q 368.538 19.769 367.3 23 A 0.714 0.714 0 0 0 367.578 23.146 Q 368.293 23.381 370.53 23.399 A 47.308 47.308 0 0 0 370.9 23.4 A 25.187 25.187 0 0 0 372.63 23.345 Q 374.678 23.203 375.9 22.7 A 16.106 16.106 0 0 1 376.601 22.369 Q 377.621 21.919 378.156 21.901 A 1.301 1.301 0 0 1 378.2 21.9 A 0.666 0.666 0 0 1 378.306 21.908 Q 378.491 21.938 378.5 22.086 A 0.253 0.253 0 0 1 378.5 22.1 Q 378.5 22.4 378 22.9 A 19.632 19.632 0 0 1 374.778 25.127 A 23.878 23.878 0 0 1 373.05 26 Q 370.2 27.3 366.5 27.8 L 366.2 27.8 A 0.595 0.595 0 0 0 366.136 27.804 Q 366.044 27.814 365.9 27.85 A 3.198 3.198 0 0 0 365.793 27.879 Q 365.569 27.944 365.1 28.1 Q 357.921 42.379 356.406 48.443 A 11.447 11.447 0 0 0 356 51.1 A 3.135 3.135 0 0 0 356.049 51.679 Q 356.23 52.642 357.093 52.697 A 1.683 1.683 0 0 0 357.2 52.7 L 360 52.1 L 360.1 52.2 Q 360.1 54.224 357.035 54.297 A 9.82 9.82 0 0 1 356.8 54.3 A 5.922 5.922 0 0 1 355.032 54.059 Q 353.099 53.454 352.586 51.333 A 7.386 7.386 0 0 1 352.4 49.6 A 16.839 16.839 0 0 1 352.673 46.721 Q 353.19 43.76 354.685 39.891 A 63.118 63.118 0 0 1 355.2 38.6 L 357.4 33.4 A 5403.087 5403.087 0 0 1 358.497 30.809 Q 359.156 29.253 359.9 27.5 Q 356.5 26.2 356.5 23.6 A 2.496 2.496 0 0 1 356.527 23.216 Q 356.558 23.023 356.621 22.871 A 0.873 0.873 0 0 1 356.9 22.5 A 7.373 7.373 0 0 0 357.932 22.881 Q 359.32 23.289 361.5 23.5 A 128.391 128.391 0 0 0 362.621 20.915 Q 364.8 15.725 364.8 14.1 Q 364.8 11.9 364 11.9 Z M 335.568 54.515 A 11.723 11.723 0 0 0 337.7 54.7 A 9.659 9.659 0 0 0 338.992 54.611 A 11.894 11.894 0 0 0 340.85 54.2 Q 342.5 53.7 344 52.7 Q 345.597 51.617 346.283 50.5 A 3.217 3.217 0 0 0 346.8 48.8 A 2.764 2.764 0 0 0 346.635 47.934 Q 346.084 46.298 343.697 43.372 A 60.007 60.007 0 0 0 342.1 41.5 A 249.125 249.125 0 0 1 341.617 40.934 Q 338.2 36.91 337.552 35.774 A 0.951 0.951 0 0 1 337.4 35.4 A 4.952 4.952 0 0 1 337.468 34.585 Q 337.823 32.451 340.044 30.356 A 18.42 18.42 0 0 1 342.1 28.7 Q 344.35 27.153 346.534 26.332 A 13.757 13.757 0 0 1 351.4 25.4 A 1.225 1.225 0 0 1 351.405 25.4 Q 351.706 25.401 352.4 25.55 Q 353.1 25.7 354.2 25.9 Q 354.593 25.9 354.677 25.561 A 0.877 0.877 0 0 0 354.7 25.35 A 0.362 0.362 0 0 0 354.694 25.288 Q 354.61 24.808 353.314 23.433 A 35.093 35.093 0 0 0 352.6 22.7 Q 350.959 21.06 350.173 20.701 A 0.936 0.936 0 0 0 349.8 20.6 A 10.555 10.555 0 0 0 346.397 21.204 Q 344.88 21.719 343.259 22.677 A 27.307 27.307 0 0 0 340.2 24.8 Q 337.406 26.992 336.143 29.213 A 7.394 7.394 0 0 0 335.1 32.9 A 12.164 12.164 0 0 0 337.339 39.908 A 18.071 18.071 0 0 0 340.3 43.2 A 46.226 46.226 0 0 1 340.602 43.471 Q 342.463 45.155 342.88 45.929 A 0.831 0.831 0 0 1 343 46.3 Q 343 49.089 335.262 51.205 A 63.583 63.583 0 0 1 331.5 52.1 A 0.72 0.72 0 0 0 331.518 52.257 Q 331.644 52.824 332.675 53.439 A 9.041 9.041 0 0 0 333.35 53.8 A 8.632 8.632 0 0 0 335.568 54.515 Z M 264.8 48.4 A 12.355 12.355 0 0 0 264.904 50.068 Q 265.428 53.9 268.6 53.9 Q 269.538 53.9 271.513 52.863 A 29.384 29.384 0 0 0 272.7 52.2 Q 275.6 50.5 275.6 49.4 A 0.589 0.589 0 0 0 275.583 49.252 Q 275.536 49.071 275.358 49.02 A 0.576 0.576 0 0 0 275.2 49 Q 274.8 49.3 274.35 49.7 A 14.576 14.576 0 0 1 274.275 49.767 Q 273.938 50.061 273.309 50.581 A 130.876 130.876 0 0 1 272.8 51 A 9.892 9.892 0 0 1 272.38 51.313 Q 271.675 51.809 271.111 51.993 A 1.985 1.985 0 0 1 270.5 52.1 Q 269.2 52.1 269.2 49.6 A 9.564 9.564 0 0 1 269.203 49.348 Q 269.232 48.251 269.507 46.719 A 36.624 36.624 0 0 1 269.85 45.05 A 35.611 35.611 0 0 1 269.857 45.019 Q 270.508 42.176 272 37.8 A 124.256 124.256 0 0 1 273.235 34.347 A 98.005 98.005 0 0 1 274.85 30.3 A 53.079 53.079 0 0 1 276.242 27.288 A 39.836 39.836 0 0 1 277.9 24.3 A 1.138 1.138 0 0 0 277.782 23.984 Q 277.308 23.131 275.3 22.949 A 13.387 13.387 0 0 0 274.1 22.9 Q 272.9 22.9 272.2 23.6 Q 271.966 23.835 271.579 24.557 A 17.904 17.904 0 0 0 271.35 25 A 14.735 14.735 0 0 0 271.22 25.267 Q 270.913 25.914 270.83 26.274 A 1.04 1.04 0 0 0 270.8 26.5 A 122.78 122.78 0 0 0 269.696 29.08 Q 266.494 36.813 265.386 42.695 A 31.019 31.019 0 0 0 264.8 48.4 Z M 283.3 8.4 L 282.8 11.3 Q 282.3 14.4 281 15.95 Q 279.7 17.5 278.2 17.5 A 6.613 6.613 0 0 1 276.603 17.317 A 4.811 4.811 0 0 1 274.6 16.3 A 24.564 24.564 0 0 0 276.31 15.01 Q 277.441 14.081 278.65 12.9 Q 280.8 10.8 283.1 7.9 A 0.144 0.144 0 0 1 283.228 7.98 Q 283.293 8.088 283.299 8.345 A 2.293 2.293 0 0 1 283.3 8.4 Z" vector-effect="non-scaling-stroke"/></g></svg>